<?xml version="1.0" encoding="UTF-8"?><svg id="a" xmlns="http://www.w3.org/2000/svg" viewBox="0 0 40 60"><defs><style>.o{fill:none;}.p{fill:#fff;}</style></defs><rect class="o" width="40" height="60"/><g id="b"><path id="c" class="p" d="M23.05,22.68c1.21-.03,2.41,.17,3.53,.61h.06s.77,.36,.63,1.84c-.04,1.11-.97,1.97-2.07,1.94h-.22c-2.5,.05-4.16,.09-4.71,.09s-1.09,0-1.65,.05c0-.76-.05-2.16-.07-2.66-.01-.39-.08-.78-.2-1.15,1.35-.36,2.72-.6,4.11-.71h.64"/><path id="d" class="p" d="M23.81,17.62h1.31c.74,0,1.7,.12,2.01,.69,.31,.53,.4,1.17,.25,1.77-.08,.42-.28,.81-.57,1.11-.12,.14-.26,.26-.4,.37-1.08-.28-2.19-.41-3.3-.39-.32-.02-.64-.02-.95,0-1.57,.13-3.13,.42-4.65,.87-.54-.42-1.16-.72-1.82-.89,1.19-1.21,2.6-2.17,4.15-2.83,1.27-.46,2.61-.7,3.96-.69"/><path id="e" class="p" d="M22.96,12.01h.53c3.06,.15,3.47,.57,3.49,2.16-.07,.79-.49,1.5-1.13,1.96-.31-.03-.95-.1-1.75-.1-1.21-.03-2.43,.13-3.59,.47-1.86,.57-3.57,1.53-5.02,2.83-.81,.74-1.62,1.62-1.92,1.95-.34,.13-.66,.32-.93,.56l-.26,.25c-.29-.31-.63-.56-1-.75-.45-.18-.92-.28-1.4-.29,.9-2.15,2.27-4.07,4.01-5.61,2.54-2.12,5.72-3.33,9.03-3.43h0"/><path id="f" class="p" d="M26.58,28.33c.36,1.35,.6,2.72,.71,4.11,.11,1.4-.09,2.81-.58,4.12h0s-.3,.64-1.44,.64c-.13,0-.25,0-.38,0-1.11-.04-1.97-.98-1.93-2.08h0v-.57c0-1.18-.08-3.65-.08-4.34,0-.45,0-1.1-.06-1.66,1.7,0,2.37-.06,2.63-.07,.39-.01,.78-.08,1.15-.2"/><path id="g" class="p" d="M28.79,25.71c1.21,1.18,2.16,2.6,2.82,4.15,.57,1.5,.81,3.11,.71,4.72v.51c0,.74-.12,1.7-.69,2.01-.36,.2-.76,.31-1.16,.31-.2,0-.4-.02-.59-.06-.42-.08-.81-.28-1.12-.57-.13-.13-.26-.26-.37-.4,.36-1.38,.49-2.8,.38-4.22-.13-1.57-.42-3.12-.87-4.64,.29-.36,.53-.77,.7-1.2,.08-.2,.14-.4,.19-.61"/><path id="h" class="p" d="M28.93,19.97c2.15,.9,4.06,2.27,5.6,4.01,2.25,2.66,3.46,6.03,3.43,9.51-.16,3.06-.58,3.48-2.18,3.5-.78-.08-1.48-.49-1.93-1.13,.19-1.79,.06-3.61-.39-5.36-.57-1.86-1.54-3.57-2.83-5.02-.77-.83-1.66-1.65-1.95-1.91-.13-.34-.32-.66-.56-.93-.08-.09-.16-.18-.25-.26,.3-.29,.56-.63,.75-1,.18-.43,.28-.89,.3-1.35"/><path id="i" class="p" d="M21.4,32.79c0,.81,.05,2.17,.07,2.66,.01,.39,.08,.78,.2,1.15-1.35,.36-2.72,.6-4.11,.71h-.57c-1.21,.04-2.41-.17-3.54-.6h0s-.77-.37-.63-1.83c.04-1.11,.98-1.97,2.08-1.93h.3c.94,0,3.83-.1,4.63-.1,.47,0,1.14,0,1.66-.06"/><path id="j" class="p" d="M22.49,37.92c.36,.3,.77,.53,1.2,.7,.2,.08,.4,.15,.61,.19-1.18,1.21-2.59,2.17-4.15,2.83-1.26,.48-2.6,.73-3.94,.73h-1.3c-.74,0-1.7-.12-2.01-.69-.3-.54-.38-1.17-.24-1.77,.08-.42,.27-.81,.56-1.12,.13-.13,.26-.25,.4-.36,1.07,.28,2.17,.43,3.28,.42h.95c1.57-.14,3.12-.43,4.63-.88"/><path id="k" class="p" d="M27.64,37.9c.62,.67,1.49,1.05,2.41,1.05-.9,2.15-2.27,4.07-4.01,5.61-2.54,2.12-5.72,3.33-9.03,3.44h-.52c-3.01-.16-3.47-.57-3.49-2.16,.07-.78,.49-1.5,1.13-1.95,.31,0,1,.08,1.75,.08,1.21,.02,2.42-.14,3.59-.47,1.86-.57,3.57-1.54,5.02-2.83,.81-.74,1.62-1.62,1.92-1.96,.34-.12,.66-.31,.93-.55,.09-.08,.18-.17,.26-.27"/><path id="l" class="p" d="M14.78,22.76c.13,0,.25,0,.38,0,1.11,.04,1.97,.98,1.93,2.08v.21c.06,2.57,.09,4.18,.09,4.71s0,1.18,.06,1.65l-2.66,.07c-.4,.01-.79,.08-1.16,.2-.36-1.35-.59-2.72-.7-4.11-.11-1.4,.09-2.81,.58-4.12h0s.3-.65,1.45-.65"/><path id="m" class="p" d="M9.53,22.61c.2,0,.4,.03,.59,.07,.42,.08,.81,.27,1.12,.56,.13,.13,.26,.26,.37,.4-.37,1.38-.5,2.81-.39,4.23,.12,1.57,.4,3.13,.84,4.65-.29,.36-.53,.77-.69,1.2-.09,.2-.15,.4-.2,.61-1.2-1.19-2.15-2.61-2.8-4.16-.57-1.5-.81-3.1-.71-4.71v-.54c0-.74,.12-1.7,.69-2.01,.36-.2,.76-.3,1.16-.31"/><path id="n" class="p" d="M4.21,23.05c.77,.09,1.48,.5,1.93,1.13-.19,1.79-.06,3.61,.39,5.36,.57,1.86,1.54,3.57,2.83,5.02,.72,.79,1.57,1.58,1.95,1.92,.13,.34,.31,.66,.55,.93,.08,.09,.17,.18,.26,.26-.31,.29-.57,.63-.77,1-.18,.46-.28,.94-.28,1.43-2.14-.9-4.05-2.27-5.59-4.01-2.26-2.66-3.48-6.04-3.44-9.53,.15-3.07,.57-3.51,2.15-3.51h0"/></g></svg>