<?xml version="1.0" encoding="UTF-8" standalone="no"?>
<svg
   xmlns:dc="http://purl.org/dc/elements/1.1/"
   xmlns:cc="http://creativecommons.org/ns#"
   xmlns:rdf="http://www.w3.org/1999/02/22-rdf-syntax-ns#"
   xmlns:svg="http://www.w3.org/2000/svg"
   xmlns="http://www.w3.org/2000/svg"
   xmlns:sodipodi="http://sodipodi.sourceforge.net/DTD/sodipodi-0.dtd"
   xmlns:inkscape="http://www.inkscape.org/namespaces/inkscape"
   viewBox="0 0 60 40"
   version="1.1"
   id="svg40"
   sodipodi:docname="white-logo-only.svg"
   inkscape:version="0.92.5 (2060ec1f9f, 2020-04-08)"
   width="60"
   height="40"
   inkscape:export-filename="/home/xose/data/Cloud/xose_nextcloud_xoseperez_com/professional/Clients/RAK Wireless/Company/white-logo-only.png"
   inkscape:export-xdpi="96"
   inkscape:export-ydpi="96">
  <metadata
     id="metadata44">
    <rdf:RDF>
      <cc:Work
         rdf:about="">
        <dc:format>image/svg+xml</dc:format>
        <dc:type
           rdf:resource="http://purl.org/dc/dcmitype/StillImage" />
        <dc:title></dc:title>
      </cc:Work>
    </rdf:RDF>
  </metadata>
  <sodipodi:namedview
     pagecolor="#ffffff"
     bordercolor="#666666"
     borderopacity="1"
     objecttolerance="10"
     gridtolerance="10"
     guidetolerance="10"
     inkscape:pageopacity="0"
     inkscape:pageshadow="2"
     inkscape:window-width="2560"
     inkscape:window-height="1055"
     id="namedview42"
     showgrid="false"
     inkscape:zoom="13.158149"
     inkscape:cx="20.685031"
     inkscape:cy="23.022597"
     inkscape:window-x="0"
     inkscape:window-y="0"
     inkscape:window-maximized="1"
     inkscape:current-layer="svg40"
     inkscape:pagecheckerboard="true"
     showborder="true" />
  <defs
     id="defs4">
    <style
       id="style2">.cls-1{fill:#fff;}</style>
  </defs>
  <g
     id="g898"
     transform="matrix(2.5629416,0,0,2.5629416,12.085018,2.0670976)">
    <path
       style="fill:#ffffff"
       inkscape:connector-curvature="0"
       id="path14"
       d="M 8.175,4.149 A 3.52,3.52 0 0 1 9.55,4.384 l 0.012,0.007 h 0.011 c 0.012,0.006 0.3,0.14 0.244,0.711 a 0.781,0.781 0 0 1 -0.83,0.75 H 8.924 C 7.954,5.874 7.305,5.887 7.095,5.887 6.919,5.887 6.668,5.897 6.453,5.909 6.447,5.609 6.435,5.069 6.427,4.875 A 1.624,1.624 0 0 0 6.348,4.425 8.953,8.953 0 0 1 7.948,4.149 Q 8.065,4.143 8.179,4.143"
       class="cls-1" />
    <path
       style="fill:#ffffff"
       inkscape:connector-curvature="0"
       id="path16"
       d="m 8.472,2.183 c 0.112,0 0.212,0 0.3,0.007 0.088,0.007 0.147,0.006 0.21,0.006 0.291,0 0.661,0.047 0.779,0.271 A 0.936,0.936 0 0 1 9.856,3.151 0.852,0.852 0 0 1 9.636,3.586 1.573,1.573 0 0 1 9.48,3.73 4.745,4.745 0 0 0 8.207,3.564 c -0.125,0 -0.25,0 -0.372,0.013 A 8.969,8.969 0 0 0 6.029,3.919 1.693,1.693 0 0 0 5.559,3.647 1.658,1.658 0 0 0 5.323,3.571 4.956,4.956 0 0 1 6.94,2.471 4.372,4.372 0 0 1 8.471,2.186"
       class="cls-1" />
    <path
       style="fill:#ffffff"
       inkscape:connector-curvature="0"
       id="path18"
       d="M 8.142,0 C 8.211,0 8.28,0 8.349,0.005 9.539,0.064 9.7,0.226 9.71,0.841 A 1.059,1.059 0 0 1 9.268,1.6 C 9.147,1.589 8.895,1.568 8.59,1.568 a 4.653,4.653 0 0 0 -1.4,0.185 5.262,5.262 0 0 0 -1.954,1.1 C 4.921,3.139 4.61,3.479 4.492,3.61 A 1.148,1.148 0 0 0 4.129,3.826 1.418,1.418 0 0 0 4.029,3.926 1.548,1.548 0 0 0 3.622,3.631 1.533,1.533 0 0 0 3.094,3.514 6,6 0 0 1 4.646,1.336 5.748,5.748 0 0 1 8.142,0 v 0"
       class="cls-1" />
    <path
       style="fill:#ffffff"
       inkscape:connector-curvature="0"
       id="path20"
       d="M 9.548,6.349 A 8.863,8.863 0 0 1 9.825,7.949 3.763,3.763 0 0 1 9.6,9.551 L 9.592,9.564 V 9.575 C 9.587,9.585 9.476,9.826 9.028,9.826 A 1.235,1.235 0 0 1 8.882,9.818 0.782,0.782 0 0 1 8.132,8.988 v -0.2 C 8.122,8.327 8.101,7.366 8.101,7.096 8.101,6.921 8.09,6.67 8.078,6.454 8.735,6.44 9,6.432 9.1,6.428 A 1.623,1.623 0 0 0 9.549,6.349"
       class="cls-1" />
    <path
       style="fill:#ffffff"
       inkscape:connector-curvature="0"
       id="path22"
       d="m 10.409,5.325 a 5,5 0 0 1 1.1,1.616 4.418,4.418 0 0 1 0.277,1.834 v 0.039 c 0,0.062 0,0.118 0,0.17 0,0.29 -0.047,0.661 -0.271,0.779 A 0.96,0.96 0 0 1 11.061,9.884 1.132,1.132 0 0 1 10.832,9.858 0.86,0.86 0 0 1 10.395,9.637 1.5,1.5 0 0 1 10.252,9.482 4.956,4.956 0 0 0 10.4,7.837 8.975,8.975 0 0 0 10.059,6.037 1.7,1.7 0 0 0 10.331,5.566 1.618,1.618 0 0 0 10.407,5.33"
       class="cls-1" />
    <path
       style="fill:#ffffff"
       inkscape:connector-curvature="0"
       id="path24"
       d="m 10.464,3.094 a 5.993,5.993 0 0 1 2.18,1.552 5.637,5.637 0 0 1 1.331,3.7 C 13.916,9.537 13.751,9.698 13.129,9.707 A 1.042,1.042 0 0 1 12.38,9.266 5.838,5.838 0 0 0 12.227,7.184 5.254,5.254 0 0 0 11.127,5.23 C 10.827,4.905 10.484,4.588 10.37,4.486 a 1.161,1.161 0 0 0 -0.216,-0.363 1.359,1.359 0 0 0 -0.1,-0.1 1.548,1.548 0 0 0 0.295,-0.407 1.531,1.531 0 0 0 0.118,-0.527"
       class="cls-1" />
    <path
       style="fill:#ffffff"
       inkscape:connector-curvature="0"
       id="path26"
       d="m 7.536,8.08 c 0.007,0.316 0.019,0.843 0.027,1.033 a 1.624,1.624 0 0 0 0.079,0.45 8.839,8.839 0 0 1 -1.6,0.276 Q 5.93,9.845 5.82,9.845 A 3.544,3.544 0 0 1 4.44,9.61 L 4.428,9.6 H 4.418 C 4.405,9.595 4.118,9.454 4.172,8.89 A 0.782,0.782 0 0 1 5,8.138 H 5.1 C 5.469,8.127 6.591,8.1 6.9,8.1 7.082,8.1 7.344,8.088 7.541,8.078"
       class="cls-1" />
    <path
       style="fill:#ffffff"
       inkscape:connector-curvature="0"
       id="path28"
       d="m 7.959,10.075 a 1.709,1.709 0 0 0 0.471,0.273 1.5,1.5 0 0 0 0.236,0.075 4.981,4.981 0 0 1 -1.616,1.1 4.388,4.388 0 0 1 -1.533,0.285 c -0.11,0 -0.209,0 -0.3,-0.008 -0.076,0 -0.144,-0.005 -0.207,-0.005 -0.29,0 -0.66,-0.047 -0.778,-0.271 A 0.938,0.938 0 0 1 4.137,10.84 0.863,0.863 0 0 1 4.357,10.404 1.626,1.626 0 0 1 4.513,10.26 4.788,4.788 0 0 0 5.786,10.427 c 0.123,0 0.249,0 0.372,-0.014 a 9,9 0 0 0 1.8,-0.342"
       class="cls-1" />
    <path
       style="fill:#ffffff"
       inkscape:connector-curvature="0"
       id="path30"
       d="m 9.963,10.065 a 1.285,1.285 0 0 0 0.934,0.413 5.987,5.987 0 0 1 -1.553,2.181 5.756,5.756 0 0 1 -3.5,1.335 c -0.067,0 -0.134,0 -0.2,0 -1.19,-0.059 -1.351,-0.222 -1.361,-0.837 a 1.058,1.058 0 0 1 0.442,-0.759 c 0.12,0.012 0.373,0.033 0.678,0.033 a 4.682,4.682 0 0 0 1.4,-0.185 5.258,5.258 0 0 0 1.954,-1.1 C 9.072,10.86 9.384,10.519 9.502,10.388 a 1.137,1.137 0 0 0 0.362,-0.215 1.11,1.11 0 0 0 0.1,-0.105"
       class="cls-1" />
    <path
       style="fill:#ffffff"
       inkscape:connector-curvature="0"
       id="path32"
       d="m 4.961,4.179 c 0.047,0 0.1,0 0.146,0.008 A 0.782,0.782 0 0 1 5.858,5.016 V 5.08 c 0.022,1 0.034,1.628 0.034,1.829 0,0.201 0.013,0.462 0.022,0.642 C 5.245,7.565 4.982,7.573 4.88,7.578 A 1.591,1.591 0 0 0 4.431,7.656 8.921,8.921 0 0 1 4.155,6.056 3.742,3.742 0 0 1 4.384,4.45 L 4.391,4.439 V 4.428 c 0,-0.01 0.116,-0.253 0.564,-0.253"
       class="cls-1" />
    <path
       style="fill:#ffffff"
       inkscape:connector-curvature="0"
       id="path34"
       d="M 2.921,4.121 A 1.078,1.078 0 0 1 3.151,4.148 0.851,0.851 0 0 1 3.587,4.368 1.626,1.626 0 0 1 3.731,4.524 4.941,4.941 0 0 0 3.578,6.169 8.925,8.925 0 0 0 3.92,7.974 1.709,1.709 0 0 0 3.647,8.444 1.534,1.534 0 0 0 3.572,8.68 4.981,4.981 0 0 1 2.472,7.064 4.4,4.4 0 0 1 2.195,5.232 C 2.195,5.154 2.2,5.084 2.2,5.021 2.2,4.731 2.248,4.361 2.472,4.242 A 0.959,0.959 0 0 1 2.925,4.121"
       class="cls-1" />
    <path
       style="fill:#ffffff"
       inkscape:connector-curvature="0"
       id="path36"
       d="m 0.852,4.3 a 1.053,1.053 0 0 1 0.749,0.442 5.8,5.8 0 0 0 0.152,2.081 5.268,5.268 0 0 0 1.1,1.954 c 0.28,0.308 0.607,0.609 0.758,0.744 a 1.163,1.163 0 0 0 0.215,0.363 1.111,1.111 0 0 0 0.1,0.1 1.548,1.548 0 0 0 -0.3,0.407 A 1.521,1.521 0 0 0 3.508,10.918 5.987,5.987 0 0 1 1.336,9.359 5.641,5.641 0 0 1 0.005,5.659 C 0.064,4.465 0.227,4.3 0.839,4.3 h 0.013"
       class="cls-1" />
  </g>
</svg>
